Coordinates
version=1
nRows=7
nColumns=63
inDegrees=yes

Units are S.I. units (second, meters, Newtons, ...)
If the header above contains a line with 'inDegrees', this indicates whether rotational values are in degrees (yes) or radians (no).

endheader
time	pelvis_tilt	pelvis_list	pelvis_rotation	pelvis_tx	pelvis_ty	pelvis_tz	hip_flexion_r	hip_adduction_r	hip_rotation_r	knee_angle_r	knee_angle_r_beta	ankle_angle_r	subtalar_angle_r	mtp_angle_r	hip_flexion_l	hip_adduction_l	hip_rotation_l	knee_angle_l	knee_angle_l_beta	ankle_angle_l	subtalar_angle_l	mtp_angle_l	L5_S1_Flex_Ext	L5_S1_Lat_Bending	L5_S1_axial_rotation	L4_L5_Flex_Ext	L4_L5_Lat_Bending	L4_L5_axial_rotation	L3_L4_Flex_Ext	L3_L4_Lat_Bending	L3_L4_axial_rotation	L2_L3_Flex_Ext	L2_L3_Lat_Bending	L2_L3_axial_rotation	L1_L2_Flex_Ext	L1_L2_Lat_Bending	L1_L2_axial_rotation	L1_T12_Flex_Ext	L1_T12_Lat_Bending	L1_T12_axial_rotation	Abs_r3	Abs_r2	Abs_r1	Abs_t1	Abs_t2	neck_flexion	neck_bending	neck_rotation	arm_flex_r	arm_add_r	arm_rot_r	elbow_flex_r	pro_sup_r	wrist_flex_r	wrist_dev_r	arm_flex_l	arm_add_l	arm_rot_l	elbow_flex_l	pro_sup_l	wrist_flex_l	wrist_dev_l
      0.00800000	    -64.45780856	     -5.85666242	      6.52010479	     -0.31328979	      1.14258858	      0.03255593	     93.48255131	    -13.30067676	    -18.81734961	     36.50650566	      0.63715872	     -1.78138502	     -0.25645690	      0.00000000	    119.40629388	      4.11481975	      5.94229951	    103.65300582	      1.80908623	     15.19982995	     -6.88497402	      0.00000000	     -0.09677127	      1.36157276	     -0.74299841	     -0.17971393	      1.81089177	     -0.78943581	     -0.15898552	      3.31052801	     -0.78943581	     -0.11059989	      3.31052801	     -0.65012361	     -0.08986180	      2.77651918	     -0.60368621	     -0.05529510	      2.10907621	     -0.55724881	     -0.69122752	     15.40238340	     -4.13233426	      0.00000000	      0.00000000	      0.00000000	      0.00000000	      0.00000001	     66.61029834	    -12.83180873	      3.17859427	     54.91086516	     60.52072641	      0.00000000	      4.62245304	     64.68616602	    -11.68465184	     12.59071824	     48.19202003	     61.45501956	      0.00000000	      4.62245304
      0.01700000	    -64.48905266	     -5.25322369	      7.47398390	     -0.31252551	      1.14326700	      0.03050532	     90.73347854	    -14.19327283	    -21.36796806	     33.36363029	      0.58230520	     -2.78833008	      3.85793032	      0.00000000	    122.02643219	      4.98129730	      4.87579242	    105.52081321	      1.84168562	     16.99076614	     -4.09603443	      0.00000000	     -0.09423016	      1.25530239	     -0.91903289	     -0.17499483	      1.66955218	     -0.97647245	     -0.15481073	      3.05214224	     -0.97647245	     -0.10769565	      3.05214224	     -0.80415378	     -0.08750212	      2.55981264	     -0.74671422	     -0.05384311	      1.94446341	     -0.68927467	     -0.67307660	     14.20023172	     -5.11138524	      0.00000000	      0.00000000	      0.00000000	      0.00000000	      0.00000001	     65.85984381	    -12.42805837	      0.94828262	     55.37012029	     60.88975721	      0.00000000	      4.65813234	     65.32340636	    -11.61803766	     13.25686572	     47.66524515	     62.07406362	      0.00000000	      4.65813234
      0.02500000	    -64.51693174	     -5.04734687	      7.64872598	     -0.31235134	      1.14340159	      0.02991721	     90.10559767	    -14.29332797	    -21.61268901	     32.93398618	      0.57480649	     -2.96608279	      3.96676465	      0.00000000	    122.73210312	      5.08416867	      4.44998465	    105.74195559	      1.84554528	     17.51604372	     -3.98144608	      0.00000000	     -0.09446967	      1.22630480	     -0.95003549	     -0.17543963	      1.63098538	     -1.00941270	     -0.15520423	      2.98163749	     -1.00941270	     -0.10796939	      2.98163749	     -0.83128105	     -0.08772454	      2.50068074	     -0.77190383	     -0.05397997	      1.89954613	     -0.71252661	     -0.67478744	     13.87220514	     -5.28381236	      0.00000000	      0.00000000	      0.00000000	      0.00000000	      0.00000001	     65.72353013	    -12.43397617	      0.80917027	     55.50690349	     60.93272213	      0.00000000	      4.66136015	     65.43307530	    -11.61821515	     13.37907699	     47.54966850	     62.14314154	      0.00000000	      4.66136015
      0.03300000	    -64.56158232	     -4.76343637	      7.81284482	     -0.31215238	      1.14354084	      0.02933701	     89.47800383	    -14.46653422	    -22.07530418	     32.68786026	      0.57051079	     -3.15860421	      4.21219606	      0.00000000	    123.44611077	      5.11755872	      3.96053439	    105.83050611	      1.84709078	     18.54606329	     -3.49867767	      0.00000000	     -0.09348320	      1.18535650	     -0.97294185	     -0.17360765	      1.57652414	     -1.03375072	     -0.15358355	      2.88207579	     -1.03375072	     -0.10684195	      2.88207579	     -0.85132412	     -0.08680850	      2.41717897	     -0.79051526	     -0.05341630	      1.83611721	     -0.72970639	     -0.66774116	     13.40898977	     -5.41121070	      0.00000000	      0.00000000	      0.00000000	      0.00000000	      0.00000001	     65.46493631	    -12.41779691	      0.45988396	     55.76593368	     60.99429430	      0.00000000	      4.66683743	     65.63426802	    -11.65149267	     13.78416097	     47.33991226	     62.28324464	      0.00000000	      4.66683743
      0.04200000	    -64.59178916	     -4.45298910	      7.95504044	     -0.31201304	      1.14351052	      0.02879555	     88.93627579	    -14.67590047	    -22.39194800	     32.85861693	      0.57349105	     -3.17653259	      4.54169536	      0.00000000	    124.21562222	      5.10159379	      3.56495136	    105.85499547	      1.84751820	     19.91964128	     -2.05818817	      0.00000000	     -0.09351110	      1.14125850	     -0.99059554	     -0.17365946	      1.51787380	     -1.05250776	     -0.15362938	      2.77485591	     -1.05250776	     -0.10687383	      2.77485591	     -0.86677109	     -0.08683441	      2.32725432	     -0.80485887	     -0.05343224	      1.76780941	     -0.74294665	     -0.66794043	     12.91014435	     -5.50939519	      0.00000000	      0.00000000	      0.00000000	      0.00000000	      0.00000001	     65.19321378	    -12.31401005	     -0.13513632	     56.02541648	     61.15454921	      0.00000000	      4.67916743	     65.89413724	    -11.83518753	     14.66976499	     47.10108750	     62.59466448	      0.00000000	      4.67916743
      0.05000000	    -64.66504240	     -4.23161834	      8.06730169	     -0.31189509	      1.14381473	      0.02808054	     88.27737202	    -14.74432851	    -22.49396300	     32.78262030	      0.57216466	     -3.30827099	      4.49723009	      0.00000000	    125.00571396	      5.10117354	      3.06844749	    105.58709897	      1.84284252	     20.67778732	     -1.86231839	      0.00000000	     -0.09333969	      1.11164808	     -1.01423023	     -0.17334115	      1.47849195	     -1.07761962	     -0.15334778	      2.70286115	     -1.07761962	     -0.10667794	      2.70286115	     -0.88745145	     -0.08667524	      2.26687277	     -0.82406206	     -0.05333430	      1.72194288	     -0.76067267	     -0.66671610	     12.57518546	     -5.64084428	      0.00000000	      0.00000000	      0.00000000	      0.00000000	      0.00000001	     65.06108449	    -12.32678038	     -0.15963414	     56.18797275	     61.19007730	      0.00000000	      4.68296429	     65.98675043	    -11.85774729	     14.81353494	     47.01076050	     62.64834598	      0.00000000	      4.68296429
      0.05800000	    -64.73805317	     -3.88675896	      8.21229822	     -0.31188102	      1.14405417	      0.02749466	     87.84910678	    -14.94164327	    -22.38176171	     33.28090530	      0.58086138	     -3.46291512	      4.20755547	      0.00000000	    125.70511827	      5.02300718	      2.59427918	    105.09767254	      1.83430042	     22.05064069	     -0.35519111	      0.00000000	     -0.09300980	      1.06316789	     -1.03426972	     -0.17272850	      1.41401329	     -1.09891158	     -0.15280580	      2.58498640	     -1.09891158	     -0.10630090	      2.58498640	     -0.90498601	     -0.08636890	      2.16801196	     -0.84034415	     -0.05314580	      1.64684706	     -0.77570229	     -0.66435971	     12.02676778	     -5.75229793	      0.00000000	      0.00000000	      0.00000000	      0.00000000	      0.00000001	     64.82630022	    -12.24567911	     -0.60486422	     56.44029802	     61.40092039	      0.00000000	      4.69901247	     66.25888529	    -12.04758617	     15.65229503	     46.83229609	     62.99145357	      0.00000000	      4.69901247
